HIERARCHY
ROOT Hips
{
	OFFSET 0.000000 0.000000 0.000000
	CHANNELS 6 Xposition Yposition Zposition Zrotation Yrotation Xrotation 
	JOINT LHipJoint
	{
		OFFSET 0.000000 0.000000 0.000000
		CHANNELS 3 Zrotation Yrotation Xrotation
		JOINT LeftUpLeg
		{
			OFFSET 1.363060 -1.794630 0.839290
			CHANNELS 3 Zrotation Yrotation Xrotation
			JOINT LeftLeg
			{
				OFFSET 2.448110 -6.726130 0.000000
				CHANNELS 3 Zrotation Yrotation Xrotation
				JOINT LeftFoot
				{
					OFFSET 2.562200 -7.039590 0.000000
					CHANNELS 3 Zrotation Yrotation Xrotation
					JOINT LeftToeBase
					{
						OFFSET 0.157640 -0.433110 2.322550
						CHANNELS 3 Zrotation Yrotation Xrotation
						End Site
						{
							OFFSET 0.000000 0.000000 0.000000
						}
					}
				}
			}
		}
	}
	JOINT RHipJoint
	{
		OFFSET 0.000000 0.000000 0.000000
		CHANNELS 3 Zrotation Yrotation Xrotation
		JOINT RightUpLeg
		{
			OFFSET -1.305520 -1.794630 0.839290
			CHANNELS 3 Zrotation Yrotation Xrotation
			JOINT RightLeg
			{
				OFFSET -2.542530 -6.985550 0.000000
				CHANNELS 3 Zrotation Yrotation Xrotation
				JOINT RightFoot
				{
					OFFSET -2.568260 -7.056230 0.000000
					CHANNELS 3 Zrotation Yrotation Xrotation
					JOINT RightToeBase
					{
						OFFSET -0.164730 -0.452590 2.363150
						CHANNELS 3 Zrotation Yrotation Xrotation
						End Site
						{
							OFFSET 0.000000 0.000000 0.000000
						}
					}
				}
			}
		}
	}
	JOINT LowerBack
	{
		OFFSET 0.000000 0.000000 0.000000
		CHANNELS 3 Zrotation Yrotation Xrotation
		JOINT Spine
		{
			OFFSET 0.028270 2.035590 -0.193380
			CHANNELS 3 Zrotation Yrotation Xrotation
			JOINT Spine1
			{
				OFFSET 0.056720 2.048850 -0.042750
				CHANNELS 3 Zrotation Yrotation Xrotation
				JOINT Neck
				{
					OFFSET 0.000000 0.000000 0.000000
					CHANNELS 3 Zrotation Yrotation Xrotation
					JOINT Neck1
					{
						OFFSET -0.054170 1.746240 0.172020
						CHANNELS 3 Zrotation Yrotation Xrotation
						JOINT Head
						{
							OFFSET 0.104070 1.761360 -0.123970
							CHANNELS 3 Zrotation Yrotation Xrotation
							End Site
							{
								OFFSET 0.000000 0.000000 0.000000
							}
						}
					}
				}
				JOINT LeftShoulder
				{
					OFFSET 0.000000 0.000000 0.000000
					CHANNELS 3 Zrotation Yrotation Xrotation
					JOINT LeftArm
					{
						OFFSET 3.362410 1.200890 -0.311210
						CHANNELS 3 Zrotation Yrotation Xrotation
						JOINT LeftForeArm
						{
							OFFSET 4.983000 -0.000000 -0.000000
							CHANNELS 3 Zrotation Yrotation Xrotation
							JOINT LeftHand
							{
								OFFSET 3.483560 -0.000000 -0.000000
								CHANNELS 3 Zrotation Yrotation Xrotation
								JOINT LeftFingerBase
								{
									OFFSET 0.000000 0.000000 0.000000
									CHANNELS 3 Zrotation Yrotation Xrotation
									JOINT LeftHandIndex1
									{
										OFFSET 0.715260 -0.000000 -0.000000
										CHANNELS 3 Zrotation Yrotation Xrotation
										End Site
										{
											OFFSET 0.000000 0.000000 0.000000
										}
									}
								}
								JOINT LThumb
								{
									OFFSET 0.000000 0.000000 0.000000
									CHANNELS 3 Zrotation Yrotation Xrotation
									End Site
									{
										OFFSET 0.000000 0.000000 0.000000
									}
								}
							}
						}
					}
				}
				JOINT RightShoulder
				{
					OFFSET 0.000000 0.000000 0.000000
					CHANNELS 3 Zrotation Yrotation Xrotation
					JOINT RightArm
					{
						OFFSET -3.136600 1.374050 -0.404650
						CHANNELS 3 Zrotation Yrotation Xrotation
						JOINT RightForeArm
						{
							OFFSET -5.241900 -0.000000 -0.000000
							CHANNELS 3 Zrotation Yrotation Xrotation
							JOINT RightHand
							{
								OFFSET -3.444170 -0.000000 -0.000000
								CHANNELS 3 Zrotation Yrotation Xrotation
								JOINT RightFingerBase
								{
									OFFSET 0.000000 0.000000 0.000000
									CHANNELS 3 Zrotation Yrotation Xrotation
									JOINT RightHandIndex1
									{
										OFFSET -0.622530 -0.000000 -0.000000
										CHANNELS 3 Zrotation Yrotation Xrotation
										End Site
										{
											OFFSET 0.000000 0.000000 0.000000
										}
									}
								}
								JOINT RThumb
								{
									OFFSET 0.000000 0.000000 0.000000
									CHANNELS 3 Zrotation Yrotation Xrotation
									End Site
									{
										OFFSET 0.000000 0.000000 0.000000
									}
								}
							}
						}
					}
				}
			}
		}
	}
}
MOTION
Frames: 7
Frame Time: 0.008333
9.423066 17.756364 -1.756175 -2.559253 -5.972898 8.443164 0.191343 -2.229906 -3.843393 -12.755184 0.871568 -37.519420 -1.690264 11.167800 25.125419 0.216571 7.854789 24.012784 0.191000 -2.814900 -7.763800 0.012900 -2.643447 3.720512 17.214130 -0.848874 7.446616 0.170311 -7.321596 24.775310 -0.524639 -4.190975 26.280287 -1.457900 7.631600 -21.600700 -0.195109 5.258790 -3.260065 0.436762 6.144477 -5.099931 4.133641 3.788640 5.964292 -10.259746 -5.025288 -16.423487 6.050059 -4.557633 8.303615 6.090000 -2.513900 11.173200 -1.236412 -5.912563 -0.612789 -82.927016 19.396781 -15.044059 0.762418 -5.966912 -0.344634 0.459384 1.856764 36.795746 12.657533 -21.396296 -5.348800 -7.125000 0.000000 0.000000 -9.744200 6.558900 8.697200 -0.644008 8.340900 1.033304 69.806987 11.299468 43.407131 -32.826721 36.586778 -14.524394 2.460834 1.958125 -23.225073 -34.228327 -19.180870 14.212500 7.125000 0.000000 0.000000 -9.504500 -53.659400 2.038100
9.445847 17.768189 -1.621867 -2.006421 -5.689177 8.336178 0.117259 -2.202218 -3.723625 -13.494561 0.784496 -37.322387 -1.683062 11.230955 25.491018 0.319608 7.313561 23.675923 0.148224 -2.458237 -6.775007 0.016235 -2.605723 3.632275 16.599734 -1.361353 6.468050 -0.303246 -7.975577 26.726974 -0.528238 -4.583523 26.971250 -1.383294 7.439453 -21.025268 -0.742623 5.099651 -3.173270 0.417275 5.972627 -5.114204 4.203426 3.681433 5.833159 -10.279864 -5.035900 -16.350237 6.049519 -4.570748 8.337581 6.078522 -2.526015 11.198228 -1.252574 -5.948301 -0.614799 -83.007302 19.240567 -15.286047 0.822177 -6.042224 -0.358850 0.486826 1.852560 36.923727 12.575326 -21.534644 -5.339076 -7.125000 0.000000 0.000000 -9.814342 6.420050 8.788651 -0.653265 8.353672 1.016306 70.033771 10.868147 43.490747 -32.448189 36.338055 -14.255474 2.465832 1.956634 -23.238014 -34.115677 -19.109010 14.110050 7.125000 0.000000 0.000000 -9.385949 -53.549085 1.987194
9.468539 17.781219 -1.486875 -1.481414 -5.433686 8.221381 0.043138 -2.171761 -3.602514 -14.196868 0.708273 -37.100819 -1.673812 11.287994 25.839122 0.409689 6.813261 23.331075 0.107688 -2.112909 -5.817958 0.018607 -2.568005 3.540372 16.016764 -1.826295 5.515747 -0.782966 -8.629396 28.673989 -0.516803 -5.044641 27.644401 -1.300529 7.222119 -20.376298 -1.256665 4.956385 -3.076636 0.396063 5.820350 -5.126479 4.256729 3.584626 5.708910 -10.290545 -5.046449 -16.284339 6.053496 -4.585902 8.364812 6.069567 -2.536957 11.221091 -1.269437 -5.982693 -0.616087 -83.069494 19.084437 -15.515067 0.887697 -6.126853 -0.374187 0.515632 1.849272 37.060961 12.496264 -21.693481 -5.335075 -7.125000 0.000000 0.000000 -9.883650 6.258951 8.883716 -0.662895 8.365730 0.999703 70.265630 10.445068 43.563004 -32.069116 36.088942 -13.986966 2.472341 1.950557 -23.260662 -34.033364 -18.993889 13.989462 7.125000 0.000000 0.000000 -9.300900 -53.388279 1.931467
9.490566 17.803246 -1.346771 -1.164167 -5.388976 8.048253 -0.031269 -2.120633 -3.471376 -14.622384 0.713056 -36.696066 -1.649277 11.299360 26.056593 0.403026 6.618564 22.926589 0.083882 -1.852214 -5.097937 0.013783 -2.530324 3.421095 15.668441 -1.936295 4.759551 -1.308698 -9.282000 30.586286 -0.393110 -6.017742 28.184555 -1.156844 6.816729 -19.178247 -1.520786 4.931632 -2.906537 0.361963 5.814215 -5.123830 4.186973 3.565477 5.636058 -10.230769 -5.056536 -16.273336 6.091198 -4.616280 8.341762 6.079451 -2.539136 11.227786 -1.291531 -6.007034 -0.611977 -82.996575 18.928931 -15.647268 0.996235 -6.281047 -0.397897 0.554627 1.852827 37.267282 12.440692 -22.005303 -5.373813 -7.125000 0.000000 0.000000 -9.946725 5.931727 9.005774 -0.675316 8.372454 0.986057 70.535374 10.083520 43.550437 -31.685999 35.836919 -13.721532 2.490133 1.910238 -23.355793 -34.177565 -18.555753 13.733442 7.125000 0.000000 0.000000 -9.466000 -52.850469 1.839751
9.512703 17.824767 -1.208625 -0.871637 -5.374776 7.874139 -0.104191 -2.070954 -3.341042 -15.029986 0.765413 -36.293398 -1.629754 11.298756 26.245675 0.408359 6.404575 22.552310 0.062097 -1.601435 -4.405582 0.005586 -2.489246 3.296256 15.342793 -2.012240 4.009237 -1.840040 -9.927042 32.500153 -0.277604 -6.948308 28.698364 -1.042920 6.494447 -18.226133 -1.754904 4.917474 -2.732421 0.328987 5.820813 -5.115431 4.123171 3.551200 5.595404 -10.190470 -5.072322 -16.289152 6.133453 -4.645226 8.299171 6.099866 -2.539281 11.227277 -1.314499 -6.028343 -0.606093 -82.929255 18.749454 -15.786145 1.111155 -6.444571 -0.422799 0.593313 1.856118 37.478684 12.390550 -22.319602 -5.415036 -7.125000 0.000000 0.000000 -10.006486 5.601842 9.125448 -0.685533 8.377667 0.975117 70.784373 9.777644 43.515521 -31.280402 35.562857 -13.440459 2.503842 1.876643 -23.399935 -34.198660 -18.192265 13.477247 7.125000 0.000000 0.000000 -9.495021 -52.388210 1.740378
9.535193 17.844649 -1.076810 -0.659020 -5.459227 7.696835 -0.172316 -2.025961 -3.213308 -15.379665 0.971589 -35.897478 -1.626439 11.259448 26.342966 0.452478 6.128208 22.275698 0.046847 -1.382718 -3.802677 -0.013519 -2.437186 3.153434 15.090463 -1.978075 3.277943 -2.389522 -10.547636 34.419096 -0.188571 -7.741346 29.126991 -1.025225 6.440884 -18.069216 -1.892014 4.937570 -2.545317 0.299640 5.868580 -5.088440 4.078621 3.552672 5.658851 -10.213147 -5.106536 -16.391681 6.190430 -4.669543 8.193403 6.154333 -2.532851 11.203471 -1.340290 -6.039847 -0.594469 -82.880041 18.492475 -15.946603 1.246712 -6.638263 -0.451558 0.631000 1.858550 37.706515 12.357964 -22.641912 -5.464295 -7.125000 0.000000 0.000000 -10.055532 5.263352 9.237410 -0.688624 8.377996 0.972926 70.966292 9.651769 43.408344 -30.802118 35.217538 -13.108819 2.504349 1.864787 -23.279215 -33.821711 -18.070137 13.220484 7.125000 0.000000 0.000000 -9.084051 -52.170238 1.616247
9.555877 17.863442 -0.949164 -0.401661 -5.535423 7.542053 -0.239207 -1.985182 -3.088253 -15.778523 1.188526 -35.531311 -1.631183 11.213572 26.418579 0.500407 5.835687 21.971198 0.036360 -1.230598 -3.383406 -0.034511 -2.381099 3.006597 14.809324 -1.944020 2.498203 -2.950990 -11.156973 36.344834 -0.090023 -8.514643 29.446398 -1.018225 6.419762 -18.007289 -2.092564 4.948764 -2.379444 0.270304 5.906942 -5.060043 4.071335 3.546308 5.736089 -10.270502 -5.164849 -16.491825 6.238300 -4.717137 8.082238 6.207123 -2.540110 11.176746 -1.368412 -6.053580 -0.580257 -82.846583 18.188403 -16.117960 1.371456 -6.814654 -0.479103 0.666901 1.865389 37.894958 12.360693 -22.994665 -5.536995 -7.125000 0.000000 0.000000 -10.083359 4.887131 9.336305 -0.691112 8.378656 0.971643 71.155163 9.563853 43.252275 -30.287630 34.838468 -12.761164 2.507938 1.865075 -23.109295 -33.447002 -18.084231 13.064321 7.125000 0.000000 0.000000 -8.679972 -52.124301 1.530489
